<?xml version="1.0" standalone="no"?>
<!DOCTYPE svg PUBLIC "-//W3C//DTD SVG 20010904//EN"
 "http://www.w3.org/TR/2001/REC-SVG-20010904/DTD/svg10.dtd">
<svg version="1.0" xmlns="http://www.w3.org/2000/svg"
 width="379.000000pt" height="100.000000pt" viewBox="0 0 379.000000 100.000000"
 preserveAspectRatio="xMidYMid meet">

<g transform="translate(0.000000,100.000000) scale(0.100000,-0.100000)"
fill="#000000" stroke="none">
<path d="M1092 462 c-19 -81 -36 -157 -39 -169 -4 -19 -1 -23 20 -23 22 0 26
5 29 33 3 30 6 32 45 35 41 3 42 2 45 -30 2 -25 8 -34 26 -36 13 -2 22 2 22
10 0 7 -17 84 -37 171 -33 140 -39 157 -57 157 -19 0 -25 -16 -54 -148z m77
-49 c1 -18 -4 -23 -25 -23 -25 0 -26 2 -20 33 4 17 10 50 13 72 l7 40 12 -50
c7 -27 13 -60 13 -72z"/>
<path d="M1308 600 c-9 -6 -19 -28 -23 -50 -4 -22 -11 -40 -16 -40 -5 0 -9 -9
-9 -20 0 -11 5 -20 10 -20 6 0 10 -40 10 -100 l0 -100 25 0 25 0 0 100 c0 93
1 100 20 100 13 0 20 7 20 20 0 13 -7 20 -20 20 -16 0 -20 7 -20 30 0 23 4 30
20 30 13 0 20 7 20 20 0 22 -32 27 -62 10z"/>
<path d="M1426 594 c-9 -8 -16 -29 -16 -45 0 -17 -6 -32 -15 -35 -8 -4 -15
-15 -15 -25 0 -10 7 -19 15 -19 12 0 15 -18 15 -100 0 -93 1 -100 20 -100 19
0 20 7 20 100 0 93 1 100 20 100 13 0 20 7 20 20 0 13 -7 20 -20 20 -15 0 -20
7 -20 26 0 17 6 28 20 31 11 3 20 14 20 24 0 24 -42 26 -64 3z"/>
<path d="M1940 549 l0 -60 -22 15 c-29 20 -34 20 -58 -4 -17 -17 -20 -33 -20
-106 0 -47 5 -94 10 -105 12 -22 59 -26 78 -7 9 9 12 9 12 0 0 -7 9 -12 20
-12 19 0 20 7 20 170 0 163 -1 170 -20 170 -18 0 -20 -7 -20 -61z m-11 -83 c7
-9 11 -41 9 -83 -3 -65 -4 -68 -28 -68 -24 0 -25 3 -28 68 -3 64 7 97 28 97 4
0 13 -6 19 -14z"/>
<path d="M2230 441 l0 -170 62 2 63 2 13 40 c20 57 10 161 -17 188 -17 18 -24
19 -46 9 l-25 -12 0 55 c0 52 -1 55 -25 55 l-25 0 0 -169z m88 30 c9 -5 12
-29 10 -82 -3 -67 -5 -74 -24 -77 -15 -2 -23 4 -28 20 -9 35 -7 93 4 122 10
28 17 31 38 17z"/>
<path d="M2420 476 c0 -165 12 -205 63 -206 10 0 17 8 17 20 0 11 -7 20 -15
20 -13 0 -15 23 -15 150 l0 150 -25 0 -25 0 0 -134z"/>
<path d="M2730 580 c-14 -14 -20 -33 -20 -66 0 -48 17 -72 84 -117 29 -20 35
-57 11 -77 -12 -10 -18 -10 -30 0 -8 7 -15 19 -15 26 0 8 -10 14 -25 14 -21 0
-25 -5 -25 -28 0 -40 37 -72 83 -72 55 0 77 27 77 95 0 59 -3 63 -70 108 -39
25 -49 57 -25 77 12 10 18 10 30 0 8 -7 15 -19 15 -26 0 -8 10 -14 25 -14 21
0 25 5 25 30 0 43 -31 70 -80 70 -27 0 -47 -7 -60 -20z"/>
<path d="M1553 510 c-33 -13 -43 -42 -43 -124 0 -63 4 -80 20 -96 26 -26 74
-26 100 0 28 28 29 167 3 198 -22 25 -51 33 -80 22z m51 -56 c3 -9 6 -37 6
-64 0 -27 -3 -55 -6 -64 -8 -21 -40 -21 -48 0 -8 21 -8 129 1 137 12 13 41 7
47 -9z"/>
<path d="M1766 499 c-21 -17 -26 -18 -26 -5 0 9 -8 16 -20 16 -19 0 -20 -7
-20 -120 0 -113 1 -120 20 -120 18 0 20 7 20 88 0 94 8 112 47 112 18 0 23 6
23 25 0 30 -9 31 -44 4z"/>
<path d="M2080 509 c-26 -11 -40 -26 -40 -46 0 -19 31 -16 46 5 16 21 47 6 52
-26 3 -17 -4 -22 -35 -28 -50 -9 -61 -19 -69 -60 -4 -23 -1 -42 10 -58 14 -22
23 -25 76 -24 l60 1 0 97 c0 79 -3 102 -17 118 -23 26 -51 33 -83 21z m55
-140 c4 -5 4 -21 1 -35 -5 -17 -13 -24 -32 -24 -29 0 -40 20 -24 49 11 22 44
28 55 10z"/>
<path d="M2573 510 c-32 -13 -43 -41 -43 -115 0 -64 11 -102 34 -117 19 -13
74 -8 90 8 23 22 20 54 -4 54 -11 0 -20 -7 -20 -15 0 -20 -46 -20 -54 1 -14
37 -7 44 44 44 l50 0 0 53 c0 58 -5 69 -37 86 -25 13 -30 13 -60 1z m41 -36
c10 -4 16 -18 16 -35 0 -26 -4 -29 -30 -29 -25 0 -30 4 -30 23 0 13 5 28 12
35 14 14 12 14 32 6z"/>
<path d="M3002 494 c-12 -8 -22 -11 -22 -5 0 6 -13 11 -30 11 l-30 0 0 -170 0
-170 30 0 30 0 0 62 c0 48 3 59 12 50 19 -19 56 -14 68 8 6 11 10 60 8 111 -3
79 -6 93 -23 105 -18 12 -24 11 -43 -2z m16 -118 c-2 -49 -7 -61 -20 -64 -16
-3 -18 5 -18 66 0 74 5 88 27 70 10 -8 13 -29 11 -72z"/>
<path d="M3160 499 c-28 -11 -40 -26 -40 -51 0 -22 33 -24 50 -4 15 19 40 10
40 -14 0 -19 -19 -30 -50 -30 -43 0 -68 -91 -34 -124 18 -19 55 -21 72 -4 9 9
12 9 12 0 0 -7 11 -12 25 -12 l25 0 0 103 c0 86 -3 106 -17 119 -26 22 -54 28
-83 17z m50 -157 c0 -18 -18 -42 -31 -42 -13 0 -19 33 -8 46 16 20 39 17 39
-4z"/>
<path d="M3344 496 c-23 -10 -33 -23 -38 -46 -15 -76 -2 -164 27 -182 19 -12
82 -9 100 4 9 7 19 25 23 41 6 25 4 27 -25 27 -22 0 -31 -5 -31 -16 0 -9 -7
-14 -17 -12 -15 3 -18 15 -18 72 0 48 4 71 13 74 7 2 16 -5 19 -17 4 -15 13
-21 34 -21 16 0 29 4 29 9 0 29 -22 60 -51 70 -17 6 -32 11 -33 11 -1 -1 -15
-7 -32 -14z"/>
<path d="M3525 498 c-32 -18 -35 -28 -35 -119 0 -98 12 -119 71 -119 42 0 55
8 68 43 10 26 9 27 -19 27 -17 0 -30 -4 -30 -10 0 -5 -9 -10 -20 -10 -15 0
-20 7 -20 25 0 23 3 25 50 25 48 0 50 1 50 28 0 93 -54 145 -115 110z m53 -71
c3 -22 -1 -27 -17 -27 -15 0 -21 6 -21 23 0 46 33 49 38 4z"/>
</g>
</svg>
