<?xml version="1.0" standalone="no"?>
<!DOCTYPE svg PUBLIC "-//W3C//DTD SVG 20010904//EN"
 "http://www.w3.org/TR/2001/REC-SVG-20010904/DTD/svg10.dtd">
<svg version="1.0" xmlns="http://www.w3.org/2000/svg"
 width="348.000000pt" height="348.000000pt" viewBox="0 0 348.000000 348.000000"
 preserveAspectRatio="xMidYMid meet">
<metadata>
Created by potrace 1.14, written by Peter Selinger 2001-2017
</metadata>
<g transform="translate(0.000000,348.000000) scale(0.100000,-0.100000)"
fill="#000000" stroke="none">
<path d="M1653 2960 c-38 -17 -1397 -1138 -1450 -1197 -37 -40 -29 -64 53
-162 97 -116 101 -117 221 -19 71 58 1195 995 1255 1046 15 12 83 -42 695
-552 676 -564 701 -583 739 -558 24 15 145 168 150 189 3 12 2 28 -3 36 -6 12
-319 277 -419 356 l-24 19 0 410 0 411 -27 21 c-26 20 -36 21 -235 18 -153 -2
-210 -6 -220 -16 -9 -9 -14 -69 -18 -217 l-5 -205 -240 202 c-132 110 -258
209 -280 219 -53 24 -138 24 -192 -1z"/>
<path d="M1430 2219 c-173 -144 -424 -351 -558 -461 l-242 -201 0 -497 c0
-495 0 -497 22 -525 42 -53 55 -55 468 -55 l380 0 0 375 0 375 245 0 245 0 2
-372 3 -373 395 0 c371 0 397 1 423 19 58 39 57 31 57 564 l0 488 -72 59
c-119 97 -689 568 -875 722 -95 79 -174 143 -175 143 -2 -1 -145 -118 -318
-261z"/>
</g>
</svg>
